<?xml version="1.0" encoding="UTF-8"?>
<svg version="1.1" xmlns="http://www.w3.org/2000/svg" width="558" height="532">
<path d="M0 0 C184.14 0 368.28 0 558 0 C558 175.56 558 351.12 558 532 C373.86 532 189.72 532 0 532 C0 356.44 0 180.88 0 0 Z " fill="#FEFEFE" transform="translate(0,0)"/>
<path d="M0 0 C184.14 0 368.28 0 558 0 C558 175.56 558 351.12 558 532 C373.86 532 189.72 532 0 532 C0 356.44 0 180.88 0 0 Z M134.1484375 105.00390625 C132.18959128 106.82385246 130.17704125 108.53717373 128.125 110.25 C104.08904895 131.28145717 86.39091716 160.57651247 74.79150391 190.00097656 C74.14595809 191.63136803 73.47334414 193.25102072 72.79296875 194.8671875 C63.54812471 217.92404952 60.77307668 244.75048561 60.75 269.375 C60.74899292 270.12500275 60.74798584 270.87500549 60.74694824 271.6477356 C60.75812691 284.00459929 61.63263418 295.85194395 64 308 C64.28203087 309.59621639 64.56327663 311.1925717 64.84375 312.7890625 C67.02952266 324.63379956 70.70152242 335.76722947 75 347 C75.41572266 348.10190674 75.41572266 348.10190674 75.83984375 349.22607422 C85.1161957 373.59869032 98.53460857 395.6328624 116 415 C116.4832373 415.54350098 116.96647461 416.08700195 117.46435547 416.64697266 C152.72393642 456.24372301 201.57050348 481.01964685 254 488 C254.64606201 488.0942627 255.29212402 488.18852539 255.95776367 488.28564453 C263.45988884 489.27135095 271.00869611 489.24271375 278.5625 489.25 C279.28865509 489.25100708 280.01481018 489.25201416 280.76296997 489.25305176 C294.01590598 489.2406942 306.92679055 488.28191443 320 486 C320.78262207 485.86609863 321.56524414 485.73219727 322.37158203 485.59423828 C363.99286048 478.16669021 402.78904601 457.30660364 433 428 C433.59022949 427.43555176 434.18045898 426.87110352 434.78857422 426.28955078 C457.61945632 404.39990576 474.51516682 378.50073431 486.16113281 349.10253906 C486.89436498 347.26476391 487.65941383 345.43974761 488.4296875 343.6171875 C495.0719197 327.48605215 498.05011446 310.25404331 500 293 C500.14465698 291.72600342 500.14465698 291.72600342 500.29223633 290.42626953 C506.18151791 233.02281793 488.84365369 175.96255834 452.62890625 131.1875 C448.89991811 126.64250259 445.05287197 122.26055941 441 118 C440.14656006 117.08976074 440.14656006 117.08976074 439.27587891 116.16113281 C424.99178032 101.01276785 409.0754285 88.137172 390.83642578 78.02392578 C388.95796227 76.97656126 387.1030598 75.89353584 385.24609375 74.80859375 C360.98754205 60.97841709 333.56077889 53.39668664 306 50 C304.98292969 49.86722656 303.96585938 49.73445313 302.91796875 49.59765625 C242.09034583 43.09631441 178.96780289 63.23702256 134.1484375 105.00390625 Z " fill="#FEFEFE" transform="translate(0,0)"/>
<path d="M0 0 C137.94 0 275.88 0 418 0 C421.73826086 16.19913039 423.40322198 30.75603565 423.375 47.1875 C423.37611786 48.104104 423.37723572 49.02070801 423.37838745 49.96508789 C423.35603406 87.28793188 423.35603406 87.28793188 418 98 C280.06 98 142.12 98 0 98 C-3.83949505 81.36218813 -5.38022118 66.26122722 -5.3125 49.3125 C-5.31167419 48.43658203 -5.31084839 47.56066406 -5.30999756 46.65820312 C-5.27514165 30.58486168 -3.9101097 15.64043882 0 0 Z " fill="#FEFEFE" transform="translate(72,220)"/>
<path d="M0 0 C121.44 0 242.88 0 368 0 C365.74535809 10.14588859 365.74535809 10.14588859 364.40625 13.3671875 C364.10348145 14.09784424 363.80071289 14.82850098 363.48876953 15.58129883 C363.16247559 16.33822021 362.83618164 17.0951416 362.5 17.875 C361.97768799 19.09449341 361.97768799 19.09449341 361.44482422 20.33862305 C349.76086174 47.10472379 332.82127308 72.4048886 310 91 C308.93475988 91.90088093 307.86966945 92.80193888 306.8046875 93.703125 C287.19583345 110.07499579 264.46232573 122.07053974 239.99902344 129.39599609 C238.16016926 129.95160494 236.33323443 130.54626657 234.5078125 131.14453125 C217.81084059 136.38934478 201.12039248 137.28123397 183.75 137.3125 C182.94965332 137.31608521 182.14930664 137.31967041 181.32470703 137.32336426 C166.07860419 137.3600661 151.19992795 136.32689918 136.4375 132.25 C134.97654907 131.85530518 134.97654907 131.85530518 133.48608398 131.45263672 C119.18435499 127.49505897 106.08216836 121.9668749 93 115 C92.40477539 114.68836914 91.80955078 114.37673828 91.19628906 114.05566406 C48.10079317 91.34219858 16.5990298 51.2192788 0.7421875 5.6171875 C0 3 0 3 0 0 Z " fill="#FEFEFE" transform="translate(97,324)"/>
<path d="M0 0 C56.98481762 -1.57602818 113.37533533 17.35539949 155.54150391 56.36767578 C156.48123047 57.26357422 157.42095703 58.15947266 158.38916016 59.08251953 C159.00807129 59.66888184 159.62698242 60.25524414 160.26464844 60.859375 C170.75974358 70.86332648 180.00328978 81.25680702 188.38916016 93.08251953 C188.83308105 93.69772461 189.27700195 94.31292969 189.734375 94.94677734 C224.6977515 143.67078709 234.27618453 203.33289907 224.96728516 261.72900391 C215.95846537 314.98948014 182.91502241 365.75216793 139.36572266 397.29736328 C138.04361221 398.23059901 136.71823817 399.15923377 135.38916016 400.08251953 C134.79329102 400.49646973 134.19742187 400.91041992 133.58349609 401.33691406 C129.60244313 404.06309427 125.52798053 406.60405264 121.38916016 409.08251953 C120.74495117 409.47503906 120.10074219 409.86755859 119.43701172 410.27197266 C85.73954765 430.62917689 46.76337313 440.29978858 7.57666016 440.33251953 C6.84683929 440.33319427 6.11701843 440.33386902 5.36508179 440.33456421 C-6.85063242 440.31670083 -18.62137046 439.50308406 -30.61083984 437.08251953 C-31.4920752 436.91091309 -32.37331055 436.73930664 -33.28125 436.5625 C-90.67170639 425.18204267 -141.9061745 391.86566317 -174.67016602 343.17871094 C-190.36453533 319.30770031 -201.79199112 293.09065898 -207.61083984 265.08251953 C-207.8716333 263.82761719 -207.8716333 263.82761719 -208.13769531 262.54736328 C-214.67571963 230.46810241 -212.98677517 197.06569695 -205.17626953 165.41601562 C-204.71859323 163.5272116 -204.30272979 161.62830781 -203.89990234 159.72705078 C-200.50178025 144.08244969 -193.11301625 129.13552296 -185.61083984 115.08251953 C-185.00884766 113.93783203 -184.40685547 112.79314453 -183.78662109 111.61376953 C-176.10694234 97.57460838 -166.58103779 84.71092936 -155.61083984 73.08251953 C-154.56561472 71.83549352 -153.52389245 70.58552242 -152.48583984 69.33251953 C-128.68986483 42.19963767 -94.10169104 20.34057441 -59.61083984 10.08251953 C-58.81677734 9.84339844 -58.02271484 9.60427734 -57.20458984 9.35791016 C-38.25533326 3.71493301 -19.77080939 0.62488625 0 0 Z M-38.61083984 32.83251953 C-39.63628906 33.09564941 -40.66173828 33.3587793 -41.71826172 33.62988281 C-55.56735071 37.27906995 -68.17907876 42.4975977 -80.83886719 49.15380859 C-82.40737624 49.97588195 -83.98688022 50.77690186 -85.56787109 51.57470703 C-127.71302189 73.41860656 -159.83189904 114.65946211 -175.09741211 159.05712891 C-175.77465549 161.38050395 -175.77465549 161.38050395 -175.61083984 165.08251953 C-54.17083984 165.08251953 67.26916016 165.08251953 192.38916016 165.08251953 C190.95686768 158.11893768 190.95686768 158.11893768 188.76025391 151.64501953 C188.45240967 150.90421143 188.14456543 150.16340332 187.82739258 149.40014648 C187.49715088 148.63532959 187.16690918 147.8705127 186.82666016 147.08251953 C186.29939331 145.85311646 186.29939331 145.85311646 185.76147461 144.59887695 C177.06880194 124.6803261 165.75407172 107.3525337 151.38916016 91.08251953 C150.66728516 90.23818359 149.94541016 89.39384766 149.20166016 88.52392578 C144.92434305 83.56992375 140.42641497 79.25128214 135.38916016 75.08251953 C134.24581339 74.10349019 133.10259606 73.12430967 131.95947266 72.14501953 C96.78342751 42.38273524 53.77484981 27.87011237 8.07666016 27.77001953 C6.86905533 27.76450577 6.86905533 27.76450577 5.63705444 27.75888062 C-9.46197436 27.72291177 -23.93793324 29.01965852 -38.61083984 32.83251953 Z M-200.61083984 171.08251953 C-204.17683851 188.02101321 -205.87008311 202.1142477 -205.92333984 219.02001953 C-205.92695526 219.89926086 -205.93057068 220.7785022 -205.93429565 221.68438721 C-206.57363382 246.02179274 -206.57363382 246.02179274 -200.61083984 269.08251953 C-62.67083984 269.08251953 75.26916016 269.08251953 217.38916016 269.08251953 C221.09683121 252.39799978 222.93997574 236.45873614 222.82666016 219.39501953 C222.82528046 218.49017822 222.82390076 217.58533691 222.82247925 216.65307617 C223.32040423 193.25298034 223.32040423 193.25298034 217.38916016 171.08251953 C79.44916016 171.08251953 -58.49083984 171.08251953 -200.61083984 171.08251953 Z M-175.61083984 275.08251953 C-174.19072504 282.00505693 -174.19072504 282.00505693 -172.01708984 288.44970703 C-171.71432129 289.18036377 -171.41155273 289.91102051 -171.09960938 290.66381836 C-170.77331543 291.42073975 -170.44702148 292.17766113 -170.11083984 292.95751953 C-169.76263184 293.77051514 -169.41442383 294.58351074 -169.05566406 295.42114258 C-162.70352458 309.97288439 -155.34655238 323.52486133 -145.61083984 336.08251953 C-144.88251953 337.02224609 -144.15419922 337.96197266 -143.40380859 338.93017578 C-111.87571134 378.41130658 -66.85941399 405.6315372 -16.27880859 411.63720703 C36.89474196 416.63544025 88.81407408 403.2480481 130.38183594 369.14648438 C140.74432665 360.52141725 150.1468123 351.81088972 158.38916016 341.08251953 C159.19998047 340.07576172 160.01080078 339.06900391 160.84619141 338.03173828 C173.44449445 322.29660588 192.38916016 295.83562434 192.38916016 275.08251953 C70.94916016 275.08251953 -50.49083984 275.08251953 -175.61083984 275.08251953 Z " fill="#415873" transform="translate(272.61083984375,48.91748046875)"/>
<path d="M0 0 C29.04 0 58.08 0 88 0 C88 3.96 88 7.92 88 12 C87.01 12 86.02 12 85 12 C85 29.49 85 46.98 85 65 C80.71 65 76.42 65 72 65 C71.505 60.545 71.505 60.545 71 56 C53.18 56 35.36 56 17 56 C16.67 58.97 16.34 61.94 16 65 C11.71 65 7.42 65 3 65 C3 47.51 3 30.02 3 12 C2.01 12 1.02 12 0 12 C0 8.04 0 4.08 0 0 Z " fill="#465D77" transform="translate(237,127)"/>
<path d="M0 0 C2.97 0 5.94 0 9 0 C9.23074219 0.64324219 9.46148437 1.28648437 9.69921875 1.94921875 C14.42630494 15.04679748 19.3223312 27.76981298 26 40 C26.32323242 40.60489258 26.64646484 41.20978516 26.97949219 41.83300781 C31.60395839 50.46074326 36.91282228 58.33323819 43 66 C43.57041016 66.73814941 44.14082031 67.47629883 44.72851562 68.23681641 C60.04158279 87.82090106 78.56176123 103.78152288 100.16748047 115.96630859 C101.37380875 116.64677674 102.57611139 117.33443956 103.77392578 118.02978516 C125.99509885 130.91153533 150.65982792 137.74658218 176 141 C177.02996094 141.13277344 178.05992187 141.26554688 179.12109375 141.40234375 C231.22447973 146.79744613 283.38835521 130.76472068 324.07470703 98.03955078 C337.07932635 87.22216507 349.40829181 74.95978152 359 61 C359.66805664 60.03392822 359.66805664 60.03392822 360.34960938 59.04833984 C372.89112376 40.73340418 381.80014372 20.96241342 389 0 C391.97 0 394.94 0 398 0 C388.79645473 47.16816953 353.81215495 90.23755947 315 117 C308.84968682 120.99711881 302.47888679 124.5671769 296 128 C295.25588867 128.39670898 294.51177734 128.79341797 293.74511719 129.20214844 C273.51509217 139.81068463 251.55857647 146.6546304 229 150 C228.30922363 150.11424316 227.61844727 150.22848633 226.90673828 150.34619141 C187.91422662 156.78295966 145.26577006 149.75634394 110.00292969 132.00683594 C108.60416219 131.30370123 107.2007554 130.60975352 105.79394531 129.92285156 C89.18203711 121.79540722 74.43981403 111.71401402 61 99 C59.60949412 97.78553982 58.21385701 96.5769229 56.8125 95.375 C49.37932564 88.86353926 43.14868595 81.73381517 37 74 C36.20464844 73.03320312 35.40929687 72.06640625 34.58984375 71.0703125 C19.35904564 52.09819315 2.77264968 24.57575851 0 0 Z " fill="#F8F9FA" transform="translate(82,324)"/>
<path d="M0 0 C0.5048291 0.44811035 1.0096582 0.8962207 1.52978516 1.35791016 C3.02751712 2.68552219 4.54105716 3.99523039 6.0546875 5.3046875 C31.89841535 28.17554208 59.8117404 66.61528372 64.04296875 101.69921875 C61.07296875 101.69921875 58.10296875 101.69921875 55.04296875 101.69921875 C54.8227002 101.07692383 54.60243164 100.45462891 54.37548828 99.81347656 C45.22035796 74.16028364 33.98036306 50.46689864 16.04296875 29.69921875 C15.37265625 28.91933594 14.70234375 28.13945312 14.01171875 27.3359375 C-18.62796291 -9.73848352 -65.28376394 -36.1822781 -115.18969727 -39.86352539 C-118.7774469 -40.07873141 -122.36421822 -40.2071981 -125.95703125 -40.30078125 C-126.7341748 -40.32269531 -127.51131836 -40.34460938 -128.31201172 -40.3671875 C-157.19181252 -41.06575152 -185.24670141 -36.58666593 -211.95703125 -25.30078125 C-212.65521973 -25.01009766 -213.3534082 -24.71941406 -214.07275391 -24.41992188 C-233.15956792 -16.34490273 -250.41353422 -4.93859433 -265.95703125 8.69921875 C-266.84624268 9.47096436 -266.84624268 9.47096436 -267.75341797 10.25830078 C-275.29484744 16.84268545 -281.83749295 23.74602818 -287.95703125 31.69921875 C-288.73304688 32.64796875 -289.5090625 33.59671875 -290.30859375 34.57421875 C-305.69035824 53.71597012 -316.28508655 75.49755899 -323.95703125 98.69921875 C-324.28703125 99.68921875 -324.61703125 100.67921875 -324.95703125 101.69921875 C-327.92703125 101.69921875 -330.89703125 101.69921875 -333.95703125 101.69921875 C-331.69065931 86.08643425 -324.33578475 71.4880863 -316.95703125 57.69921875 C-316.63089844 57.085625 -316.30476563 56.47203125 -315.96875 55.83984375 C-311.34477889 47.21825618 -306.02243627 39.37490829 -299.95703125 31.69921875 C-299.32152344 30.87035156 -298.68601562 30.04148437 -298.03125 29.1875 C-268.03768392 -9.37565639 -224.83123807 -36.39179981 -176.95703125 -46.30078125 C-175.84859863 -46.54634766 -175.84859863 -46.54634766 -174.71777344 -46.796875 C-113.64385282 -59.88221257 -46.53029216 -40.82704945 0 0 Z " fill="#F9FAFB" transform="translate(415.95703125,112.30078125)"/>
<path d="M0 0 C2.64 0 5.28 0 8 0 C7.67 0.66 7.34 1.32 7 2 C6.89796164 4.84901004 6.85788642 7.67383918 6.8613348 10.52330208 C6.85849258 11.42044782 6.85565036 12.31759356 6.85272202 13.24192554 C6.84432623 16.28174562 6.843103 19.32152783 6.84178162 22.36135864 C6.83721958 24.54922988 6.8322201 26.73710023 6.82681805 28.92496955 C6.81318664 34.96328306 6.80580417 41.0015909 6.79939139 47.0399158 C6.79140933 53.54165231 6.77770405 60.04337697 6.76467896 66.54510498 C6.74271248 77.81849887 6.72471658 89.09189489 6.70907402 100.36529922 C6.69264824 112.19227677 6.67417193 124.01924817 6.65294075 135.84621811 C6.65162314 136.58084442 6.65030554 137.31547074 6.648948 138.07235845 C6.64224617 141.80296439 6.63550754 145.53357027 6.62875474 149.26417612 C6.58095746 175.70654765 6.53778229 202.14892491 6.49731445 228.59130859 C6.45798338 254.28402117 6.41656543 279.976729 6.37231445 305.66943359 C6.37095192 306.46102017 6.36958939 307.25260676 6.36818558 308.06818081 C6.35450052 316.0174236 6.34077295 323.96666631 6.32701423 331.91590897 C6.29898566 348.11026986 6.27124087 364.30463124 6.2436676 380.49899292 C6.2423994 381.24362747 6.2411312 381.98826202 6.23982458 382.75546125 C6.15513021 432.50363313 6.07707228 482.25181579 6 532 C4.02 532 2.04 532 0 532 C0 356.44 0 180.88 0 0 Z " fill="#ECF1F7" transform="translate(0,0)"/>
<path d="M0 0 C0.8554541 0.00115814 1.7109082 0.00231628 2.59228516 0.00350952 C15.16169912 0.03710424 27.42915867 0.56833226 39.81054688 2.91552734 C41.75610362 3.27864434 43.71390387 3.57450099 45.671875 3.86328125 C82.69791348 9.91086754 117.17104404 29.77430237 144.9375 54.3125 C145.46118164 54.77301758 145.98486328 55.23353516 146.52441406 55.70800781 C176.39105375 82.09791174 199.23949293 118.56709676 208.9375 157.3125 C208.9375 157.9725 208.9375 158.6325 208.9375 159.3125 C206.9575 159.3125 204.9775 159.3125 202.9375 159.3125 C202.5353125 157.91064453 202.5353125 157.91064453 202.125 156.48046875 C186.35612002 103.02230864 150.66196227 58.3849428 101.9375 31.3125 C81.40398597 20.24487814 59.02279188 11.93767688 35.9375 8.3125 C35.23882812 8.19825684 34.54015625 8.08401367 33.8203125 7.96630859 C-3.83247347 2.06118998 -44.15274868 7.28182506 -79.0625 22.3125 C-79.9920752 22.71210937 -80.92165039 23.11171875 -81.87939453 23.5234375 C-101.91370774 32.2899384 -119.81162363 43.68910462 -136.0625 58.3125 C-137.47848698 59.52162975 -138.89507126 60.7300607 -140.3125 61.9375 C-167.41254213 85.91279933 -188.41804549 120.28112483 -198.12890625 155.140625 C-199.0625 158.3125 -199.0625 158.3125 -200.0625 159.3125 C-201.72867115 159.35313832 -203.39638095 159.355221 -205.0625 159.3125 C-201.2277805 128.1058172 -181.17897062 97.56443912 -161.0625 74.3125 C-159.82306641 72.87777344 -159.82306641 72.87777344 -158.55859375 71.4140625 C-150.39042236 62.18047745 -141.74274502 53.94599109 -132.0625 46.3125 C-131.051875 45.49652344 -130.04125 44.68054688 -129 43.83984375 C-121.11604784 37.5446311 -112.84449316 32.26366487 -104.0625 27.3125 C-103.45148438 26.96445313 -102.84046875 26.61640625 -102.2109375 26.2578125 C-70.88093808 8.52636602 -35.90820068 -0.15098083 0 0 Z " fill="#F6F7F8" transform="translate(279.0625,54.6875)"/>
<path d="M0 0 C1.98 0 3.96 0 6 0 C6.1959375 0.70640625 6.391875 1.4128125 6.59375 2.140625 C16.81637839 37.21481552 35.10852246 66.54348944 60 93 C60.65484375 93.70898438 61.3096875 94.41796875 61.984375 95.1484375 C81.00485913 115.06304695 107.25533033 130.69078518 133 140 C133.70656738 140.25974609 134.41313477 140.51949219 135.14111328 140.78710938 C183.61536639 158.41411051 240.60944633 158.65453529 288 137 C288.68255859 136.69610352 289.36511719 136.39220703 290.06835938 136.07910156 C307.36429903 128.35796688 323.39036471 119.1008205 338 107 C338.87398438 106.27828613 338.87398438 106.27828613 339.765625 105.54199219 C350.96114282 96.24229656 361.0462108 86.52671714 370 75 C370.43070801 74.44570313 370.86141602 73.89140625 371.30517578 73.3203125 C387.13439528 52.78510883 403.85128124 26.03321023 408 0 C409.98 0 411.96 0 414 0 C409.71783183 32.34842701 388.12600143 65.05948294 366.296875 88.515625 C364.3204205 90.65342273 362.43445344 92.833984 360.5625 95.0625 C352.52794483 104.25822631 342.84622765 111.8447368 333 119 C332.44924805 119.40186523 331.89849609 119.80373047 331.33105469 120.21777344 C295.34574393 146.1363867 252.07673571 159.43456053 207.94775391 159.31567383 C205.49987686 159.31249984 203.05319952 159.33617184 200.60546875 159.36132812 C189.15231975 159.40718729 178.24265333 158.13659671 167 156 C165.93346191 155.80124268 164.86692383 155.60248535 163.76806641 155.39770508 C121.74272244 147.11953075 85.75690957 126.39936322 55 97 C54.32324219 96.36449219 53.64648438 95.72898437 52.94921875 95.07421875 C47.81423918 90.12811199 43.425573 84.57723603 39 79 C38.18144531 77.98679687 37.36289063 76.97359375 36.51953125 75.9296875 C21.34329682 56.9159201 10.83138335 34.66969951 2.625 11.875 C2.36187012 11.1519165 2.09874023 10.42883301 1.82763672 9.68383789 C0.61360678 6.2283021 0 3.70723574 0 0 Z " fill="#F7F8F9" transform="translate(74,324)"/>
<path d="M0 0 C24.42 0 48.84 0 74 0 C74 5.94 74 11.88 74 18 C49.58 18 25.16 18 0 18 C0 12.06 0 6.12 0 0 Z " fill="#FBFCFC" transform="translate(244,160)"/>
<path d="M0 0 C24.42 0 48.84 0 74 0 C74 5.94 74 11.88 74 18 C49.58 18 25.16 18 0 18 C0 12.06 0 6.12 0 0 Z " fill="#F8F9FA" transform="translate(244,139)"/>
<path d="M0 0 C0.71929687 0.1129541 1.43859375 0.2259082 2.1796875 0.34228516 C38.51179389 6.29405785 74.52063605 23.53506548 102 48 C102.94488281 48.825 103.88976562 49.65 104.86328125 50.5 C131.54778693 74.12277767 151.36317743 103.92937075 163.625 137.375 C163.88522949 138.07069092 164.14545898 138.76638184 164.41357422 139.4831543 C165.76180609 143.3589621 166.26464975 146.05368332 165 150 C164.67 150 164.34 150 164 150 C163.70609375 148.79730469 163.70609375 148.79730469 163.40625 147.5703125 C157.91861497 126.70783795 147.51877399 106.50197529 135 89 C134.32582031 88.05125 133.65164063 87.1025 132.95703125 86.125 C115.97684085 62.86615996 95.18261183 43.19538434 70 29 C69.33371582 28.61779297 68.66743164 28.23558594 67.98095703 27.84179688 C49.28067905 17.1944922 29.05269648 9.48818689 8 5 C7.28102539 4.83773926 6.56205078 4.67547852 5.82128906 4.50830078 C-21.29378887 -1.35392825 -53.0716994 -0.14172198 -80 6 C-80.81227051 6.17128418 -81.62454102 6.34256836 -82.46142578 6.51904297 C-110.4425254 12.47941225 -136.37948638 25.69501178 -159 43 C-159.86367187 43.65226562 -160.72734375 44.30453125 -161.6171875 44.9765625 C-184.32946547 62.60941728 -202.75881747 84.48179871 -216 110 C-216.69250843 111.29437781 -217.38521741 112.58864833 -218.078125 113.8828125 C-224.45615126 126.00770618 -229.38489421 138.78555989 -233 152 C-233.66 151.67 -234.32 151.34 -235 151 C-233.85175939 144.28551797 -232.19789134 138.11754751 -229.625 131.8125 C-229.28122314 130.9659082 -228.93744629 130.11931641 -228.58325195 129.24707031 C-217.40310307 102.44985687 -201.806585 80.0519092 -182 59 C-181.34515625 58.29101562 -180.6903125 57.58203125 -180.015625 56.8515625 C-173.95386376 50.50484667 -166.97357159 45.29126254 -160 40 C-159.06929688 39.28585938 -158.13859375 38.57171875 -157.1796875 37.8359375 C-112.9276373 4.67992377 -54.50468024 -8.91231972 0 0 Z " fill="#4B617A" transform="translate(315,62)"/>
<path d="M0 0 C0.99 0.33 1.98 0.66 3 1 C3.88671875 3.2734375 3.88671875 3.2734375 4.6875 6.375 C12.76389893 34.29191102 27.84852154 59.35424216 47 81 C48.10601562 82.28970703 48.10601562 82.28970703 49.234375 83.60546875 C64.59606387 101.23777222 83.23760856 115.2208475 103.96435547 125.94335938 C105.83437027 126.91402669 107.68576984 127.91263992 109.53515625 128.921875 C130.61735495 140.06708414 154.16147559 145.82363752 177.69262695 148.69042969 C179.44333233 148.92531429 181.18725036 149.21147835 182.92626953 149.52124023 C208.47092098 153.50003781 237.55975215 148.91161678 262 141 C262.86109375 140.72172363 263.7221875 140.44344727 264.609375 140.15673828 C317.62499684 122.652116 359.92703782 85.8425532 385.4375 36.3125 C391.13462814 24.92417204 395.26372383 13.15795583 399 1 C399.99 1.33 400.98 1.66 402 2 C393.42451004 31.91605221 378.66817755 60.46335842 357 83 C355.78445609 84.38955862 354.57582994 85.78520631 353.375 87.1875 C346.86482247 94.61920951 339.73856811 100.85939596 332 107 C330.98679687 107.81855469 329.97359375 108.63710938 328.9296875 109.48046875 C321.0468247 115.7720932 312.78752627 121.06386327 304 126 C303.3188916 126.38575195 302.6377832 126.77150391 301.93603516 127.16894531 C291.92717496 132.79471913 281.85697757 137.28036809 271 141 C270.16082031 141.29390625 269.32164062 141.5878125 268.45703125 141.890625 C267.04803318 142.37312343 265.63395301 142.84107362 264.21484375 143.29296875 C262.59403983 143.81036824 260.98316247 144.35915126 259.37890625 144.92578125 C252.17833738 147.35094034 244.97488778 148.87064588 237.5 150.1875 C236.56333496 150.35435303 235.62666992 150.52120605 234.66162109 150.69311523 C190.57898742 158.12169975 144.36852079 151.14832341 104.93847656 130.03710938 C103.65046622 129.34800762 102.35812564 128.66693673 101.06152344 127.99414062 C83.68584126 118.97030568 68.44295638 107.17917951 54.50537109 93.47900391 C53.22050609 92.21664384 51.91858542 90.97168269 50.61328125 89.73046875 C28.82612953 68.71378605 13.50944904 40.81224932 3 12.6875 C2.69690918 11.88078857 2.39381836 11.07407715 2.08154297 10.24291992 C1.6699292 9.10753784 1.6699292 9.10753784 1.25 7.94921875 C1.00765625 7.28237061 0.7653125 6.61552246 0.515625 5.9284668 C0 4 0 4 0 0 Z " fill="#4A617A" transform="translate(80,325)"/>
<path d="M0 0 C1.32 0 2.64 0 4 0 C4 175.56 4 351.12 4 532 C3.34 532 2.68 532 2 532 C1.99826375 530.88179121 1.9965275 529.76358242 1.99473864 528.61148852 C1.91818495 479.35010316 1.84040441 430.08871995 1.7563324 380.8273468 C1.75506072 380.08200981 1.75378904 379.33667282 1.75247882 378.56874987 C1.72483698 362.37209119 1.69697399 346.17543291 1.66888306 329.97877501 C1.6551094 322.03638718 1.64138463 314.09399928 1.62768555 306.15161133 C1.62632146 305.36123182 1.62495738 304.57085231 1.62355196 303.75652191 C1.57932993 278.12003802 1.53833867 252.48355019 1.49901587 226.84705835 C1.45860274 200.51081499 1.4149441 174.17457897 1.36717889 147.83834786 C1.36043995 144.12186975 1.35373826 140.40539157 1.34705925 136.68891335 C1.34574352 135.95742901 1.34442779 135.22594467 1.3430722 134.47229415 C1.32195522 122.67888659 1.304278 110.88547624 1.28787469 99.09206129 C1.27132649 87.24692797 1.25110332 75.40180563 1.22733159 63.55668458 C1.2145512 57.13419334 1.20342026 50.71170991 1.19658089 44.28920937 C1.19029307 38.41764666 1.17948296 32.54611087 1.1649667 26.67456291 C1.16051379 24.54262884 1.15776786 22.41069044 1.15683801 20.27875193 C1.15533928 17.39604725 1.1478032 14.51342158 1.1386652 11.63073254 C1.13968787 10.78991484 1.14071054 9.94909714 1.14176419 9.08280012 C1.12596073 5.79811983 1.04612702 3.13838105 0 0 Z " fill="#E7EEF6" transform="translate(554,0)"/>
<path d="M0 0 C0 10.89 0 21.78 0 33 C0.99 33 1.98 33 3 33 C3 34.32 3 35.64 3 37 C2.21496094 36.98839844 1.42992187 36.97679687 0.62109375 36.96484375 C-6.22106615 36.85374513 -6.22106615 36.85374513 -13 37.625 C-16 38 -16 38 -18.25 37.375 C-21.40947076 34.89255869 -22.8328347 32.03503184 -23.46875 28.09765625 C-23.56350734 18.89434919 -23.56350734 18.89434919 -20.625 15.3125 C-17.21850331 12.31153863 -15.79069587 11.87441863 -11.375 11.9375 C-10.14910156 11.95103516 -10.14910156 11.95103516 -8.8984375 11.96484375 C-7.95871094 11.98224609 -7.95871094 11.98224609 -7 12 C-7 9.69 -7 7.38 -7 5 C-7.99 5 -8.98 5 -10 5 C-10 3.68 -10 2.36 -10 1 C-6.46315341 0.19157792 -3.72159473 0 0 0 Z " fill="#3E5670" transform="translate(259,250)"/>
<path d="M0 0 C0.66 0 1.32 0 2 0 C2.67119549 1.4562545 3.33681807 2.91507867 4 4.375 C4.556875 5.59316406 4.556875 5.59316406 5.125 6.8359375 C6 9 6 9 6 11 C11.445 11.495 11.445 11.495 17 12 C16.01 12.886875 15.02 13.77375 14 14.6875 C10.02359074 19.20529832 10.51604868 23.63655194 10.7890625 29.40234375 C10.85867188 30.25957031 10.92828125 31.11679687 11 32 C10.41992188 31.68804687 9.83984375 31.37609375 9.2421875 31.0546875 C4.23259726 28.46274268 4.23259726 28.46274268 -1.25 28.625 C-2.61125 29.305625 -2.61125 29.305625 -4 30 C-5.66295241 30.67587832 -7.32911367 31.34398087 -9 32 C-8.93039062 31.14277344 -8.86078125 30.28554688 -8.7890625 29.40234375 C-8.26981971 21.42092513 -8.26981971 21.42092513 -12 14.6875 C-13.59071855 13.12532159 -13.59071855 13.12532159 -15 12 C-11.2735915 10.95297814 -7.86986958 10.92557943 -4 11 C-3.79503906 10.37351562 -3.59007812 9.74703125 -3.37890625 9.1015625 C-3.10949219 8.28429687 -2.84007812 7.46703125 -2.5625 6.625 C-2.29566406 5.81289063 -2.02882813 5.00078125 -1.75390625 4.1640625 C-1 2 -1 2 0 0 Z " fill="#3D5570" transform="translate(335,402)"/>
<path d="M0 0 C0.66 0 1.32 0 2 0 C2.67119549 1.4562545 3.33681807 2.91507867 4 4.375 C4.556875 5.59316406 4.556875 5.59316406 5.125 6.8359375 C6 9 6 9 6 11 C11.445 11.495 11.445 11.495 17 12 C16.01 12.886875 15.02 13.77375 14 14.6875 C10.02359074 19.20529832 10.51604868 23.63655194 10.7890625 29.40234375 C10.85867188 30.25957031 10.92828125 31.11679687 11 32 C10.41992188 31.68804687 9.83984375 31.37609375 9.2421875 31.0546875 C4.23259726 28.46274268 4.23259726 28.46274268 -1.25 28.625 C-2.61125 29.305625 -2.61125 29.305625 -4 30 C-5.66295241 30.67587832 -7.32911367 31.34398087 -9 32 C-8.93039062 31.14277344 -8.86078125 30.28554688 -8.7890625 29.40234375 C-8.26981971 21.42092513 -8.26981971 21.42092513 -12 14.6875 C-13.59071855 13.12532159 -13.59071855 13.12532159 -15 12 C-11.2735915 10.95297814 -7.86986958 10.92557943 -4 11 C-3.79503906 10.37351562 -3.59007812 9.74703125 -3.37890625 9.1015625 C-3.10949219 8.28429687 -2.84007812 7.46703125 -2.5625 6.625 C-2.29566406 5.81289063 -2.02882813 5.00078125 -1.75390625 4.1640625 C-1 2 -1 2 0 0 Z " fill="#3D5570" transform="translate(280,402)"/>
<path d="M0 0 C0.66 0 1.32 0 2 0 C2.67119549 1.4562545 3.33681807 2.91507867 4 4.375 C4.556875 5.59316406 4.556875 5.59316406 5.125 6.8359375 C6 9 6 9 6 11 C11.445 11.495 11.445 11.495 17 12 C16.01 12.886875 15.02 13.77375 14 14.6875 C10.02359074 19.20529832 10.51604868 23.63655194 10.7890625 29.40234375 C10.85867187 30.25957031 10.92828125 31.11679687 11 32 C10.41992188 31.68804687 9.83984375 31.37609375 9.2421875 31.0546875 C4.23259726 28.46274268 4.23259726 28.46274268 -1.25 28.625 C-2.61125 29.305625 -2.61125 29.305625 -4 30 C-5.66295241 30.67587832 -7.32911367 31.34398087 -9 32 C-8.93039063 31.14277344 -8.86078125 30.28554688 -8.7890625 29.40234375 C-8.26981971 21.42092513 -8.26981971 21.42092513 -12 14.6875 C-13.59071855 13.12532159 -13.59071855 13.12532159 -15 12 C-11.2735915 10.95297814 -7.86986958 10.92557943 -4 11 C-3.79503906 10.37351562 -3.59007812 9.74703125 -3.37890625 9.1015625 C-3.10949219 8.28429687 -2.84007812 7.46703125 -2.5625 6.625 C-2.29566406 5.81289063 -2.02882812 5.00078125 -1.75390625 4.1640625 C-1 2 -1 2 0 0 Z " fill="#3D5570" transform="translate(225,402)"/>
<path d="M0 0 C3.07887275 3.92091345 2.92038175 6.46122372 2.640625 11.27734375 C2.61806641 12.01791016 2.59550781 12.75847656 2.57226562 13.52148438 C2.5137065 15.33681732 2.42403386 17.15110056 2.328125 18.96484375 C3.318125 18.96484375 4.308125 18.96484375 5.328125 18.96484375 C5.328125 20.28484375 5.328125 21.60484375 5.328125 22.96484375 C1.328125 22.96484375 -2.671875 22.96484375 -6.671875 22.96484375 C-7.950625 23.21234375 -9.229375 23.45984375 -10.546875 23.71484375 C-13.69666175 24.10999882 -14.37046305 24.15322622 -17.171875 22.40234375 C-19.1425363 19.20001914 -19.42632416 17.66164466 -18.671875 13.96484375 C-15.41338786 10.29904571 -13.16292095 8.77575177 -8.296875 8.15234375 C-7.100625 8.09046875 -5.904375 8.02859375 -4.671875 7.96484375 C-5.331875 5.98484375 -5.991875 4.00484375 -6.671875 1.96484375 C-7.991875 1.96484375 -9.311875 1.96484375 -10.671875 1.96484375 C-11.331875 3.61484375 -11.991875 5.26484375 -12.671875 6.96484375 C-14.321875 6.63484375 -15.971875 6.30484375 -17.671875 5.96484375 C-17.34231082 2.9163751 -17.1024251 1.38054729 -14.859375 -0.78515625 C-9.60149633 -3.78965835 -4.94573829 -3.76714861 0 0 Z " fill="#415873" transform="translate(289.671875,264.03515625)"/>
<path d="M0 0 C27.06 0 54.12 0 82 0 C82 1.65 82 3.3 82 5 C54.94 5 27.88 5 0 5 C0 3.35 0 1.7 0 0 Z " fill="#F2F4F5" transform="translate(240,131)"/>
<path d="M0 0 C1.32 0 2.64 0 4 0 C4 2.31 4 4.62 4 7 C5.98 7 7.96 7 10 7 C10 8.32 10 9.64 10 11 C8.02 11 6.04 11 4 11 C4.33 16.28 4.66 21.56 5 27 C8.465 26.505 8.465 26.505 12 26 C12 27.32 12 28.64 12 30 C9.31473111 32.21139791 7.38157516 32.94548926 3.9375 33.4375 C1 33 1 33 -1.16796875 31.55078125 C-3.90519258 27.73967856 -3.43543549 24.31456587 -3.25 19.75 C-3.23195313 18.90953125 -3.21390625 18.0690625 -3.1953125 17.203125 C-3.14830798 15.13492605 -3.07656724 13.06731559 -3 11 C-3.99 11 -4.98 11 -6 11 C-6 7 -6 7 -3.5625 4.375 C-2.716875 3.59125 -1.87125 2.8075 -1 2 C-0.67 1.34 -0.34 0.68 0 0 Z " fill="#415873" transform="translate(309,255)"/>
<path d="M0 0 C-3.67887954 3.09141448 -7.79850148 4.93801785 -12.125 6.9375 C-12.83398438 7.27201172 -13.54296875 7.60652344 -14.2734375 7.95117188 C-23.04058623 12.04303356 -31.8686153 15.45191836 -41.1875 18.0625 C-42.09588623 18.31854004 -43.00427246 18.57458008 -43.94018555 18.83837891 C-71.05435171 26.34500593 -71.05435171 26.34500593 -79 22 C-78.34854004 21.92072266 -77.69708008 21.84144531 -77.02587891 21.75976562 C-52.08048099 18.60950083 -28.50991368 12.20223482 -6.1875 0.5 C-3 -1 -3 -1 0 0 Z " fill="#51667E" transform="translate(381,452)"/>
<path d="M0 0 C15.72250993 0.04964816 30.77345609 2.69576713 46.0625 6.1875 C45.7325 7.1775 45.4025 8.1675 45.0625 9.1875 C44.44318604 9.07156494 43.82387207 8.95562988 43.18579102 8.83618164 C40.33280996 8.30408964 37.47892248 7.77701827 34.625 7.25 C33.65111328 7.06759766 32.67722656 6.88519531 31.67382812 6.69726562 C30.71025391 6.52001953 29.74667969 6.34277344 28.75390625 6.16015625 C27.44208374 5.91664429 27.44208374 5.91664429 26.10375977 5.66821289 C19.18030569 4.57386585 12.31233099 4.02905489 5.30859375 3.87109375 C4.52227066 3.85031265 3.73594757 3.82953156 2.92579651 3.80812073 C0.45060693 3.74351412 -2.0246749 3.68416054 -4.5 3.625 C-6.19336835 3.58172989 -7.88672787 3.53811313 -9.58007812 3.49414062 C-13.69912782 3.38792609 -17.81826887 3.28641753 -21.9375 3.1875 C-21.9375 2.8575 -21.9375 2.5275 -21.9375 2.1875 C-20.93847656 2.12691406 -19.93945312 2.06632812 -18.91015625 2.00390625 C-17.61980469 1.92011719 -16.32945312 1.83632813 -15 1.75 C-13.71222656 1.66878906 -12.42445313 1.58757813 -11.09765625 1.50390625 C-7.06626066 1.10026837 -4.42000942 0.02173063 0 0 Z " fill="#64778C" transform="translate(287.9375,59.8125)"/>
<path d="M0 0 C0.02684679 2.64590014 0.04676357 5.29153096 0.0625 7.9375 C0.07087891 8.69224609 0.07925781 9.44699219 0.08789062 10.22460938 C0.09652441 12.14994313 0.05224333 14.07535581 0 16 C-1 17 -1 17 -3.375 17.3125 C-6 17 -6 17 -7.63671875 15.29296875 C-9.96074153 11.38408229 -9.65760323 7.40594161 -9 3 C-6.28298706 -1.32709469 -4.67141415 -1.15429637 0 0 Z " fill="#F9F9FA" transform="translate(252,266)"/>
<path d="M0 0 C4.875 0.875 4.875 0.875 6 2 C6.04063832 3.66617115 6.042721 5.33388095 6 7 C3.03 7.66 0.06 8.32 -3 9 C-3 8.34 -3 7.68 -3 7 C-3.66 6.67 -4.32 6.34 -5 6 C-4.01 5.67 -3.02 5.34 -2 5 C-0.78130071 2.49552484 -0.78130071 2.49552484 0 0 Z " fill="#EEF0F3" transform="translate(279,265)"/>
<path d="M0 0 C-0.33 0.66 -0.66 1.32 -1 2 C-2.80664062 2.41064453 -2.80664062 2.41064453 -5.15625 2.6328125 C-6.01476562 2.71660156 -6.87328125 2.80039062 -7.7578125 2.88671875 C-9.11519531 3.00466797 -9.11519531 3.00466797 -10.5 3.125 C-11.37398438 3.21136719 -12.24796875 3.29773437 -13.1484375 3.38671875 C-18.78906665 3.91395857 -24.33579049 4.08058835 -30 4 C-27.12547767 1.12547767 -23.93771268 1.28037613 -20.0625 0.875 C-19.30138916 0.79008301 -18.54027832 0.70516602 -17.75610352 0.61767578 C-11.82672725 -0.00501836 -5.96161838 -0.23176918 0 0 Z " fill="#405873" transform="translate(281,60)"/>
<path d="M0 0 C4.29 0 8.58 0 13 0 C13 1.32 13 2.64 13 4 C8.71 4 4.42 4 0 4 C0 2.68 0 1.36 0 0 Z " fill="#50667E" transform="translate(274,146)"/>
<path d="M0 0 C4.29 0 8.58 0 13 0 C13 1.32 13 2.64 13 4 C9.04 4 5.08 4 1 4 C0.67 2.68 0.34 1.36 0 0 Z " fill="#445B75" transform="translate(274,167)"/>
<path d="M0 0 C7.76783437 0.79263616 15.3629639 2.41889487 23 4 C22.67 4.99 22.34 5.98 22 7 C14.74 5.68 7.48 4.36 0 3 C0 2.01 0 1.02 0 0 Z " fill="#5C7087" transform="translate(311,62)"/>
<path d="M0 0 C0 1.98 0 3.96 0 6 C-1.98 6.33 -3.96 6.66 -6 7 C-6.33 5.35 -6.66 3.7 -7 2 C-4 0 -4 0 0 0 Z " fill="#E8EBEE" transform="translate(285,276)"/>
<path d="M0 0 C5.78591511 -0.10477512 11.29309366 0.00749455 17 1 C16.01 2.485 16.01 2.485 15 4 C13.06215735 3.85879286 11.12473045 3.71187127 9.1875 3.5625 C8.10855469 3.48128906 7.02960938 3.40007812 5.91796875 3.31640625 C3 3 3 3 0 2 C0 1.34 0 0.68 0 0 Z " fill="#556A81" transform="translate(243,473)"/>
<path d="M0 0 C1.65 0 3.3 0 5 0 C5 1.98 5 3.96 5 6 C3.35 6 1.7 6 0 6 C0 4.02 0 2.04 0 0 Z " fill="#FDFDFD" transform="translate(313,182)"/>
<path d="M0 0 C1.65 0 3.3 0 5 0 C5 1.98 5 3.96 5 6 C3.35 6 1.7 6 0 6 C0 4.02 0 2.04 0 0 Z " fill="#FDFDFD" transform="translate(244,182)"/>
<path d="M0 0 C7.48291572 6.15034169 7.48291572 6.15034169 10 10 C7 10 7 10 5.17578125 8.57421875 C4.56089844 7.95160156 3.94601563 7.32898438 3.3125 6.6875 C2.37857422 5.76517578 2.37857422 5.76517578 1.42578125 4.82421875 C0 3 0 3 0 0 Z " fill="#425973" transform="translate(129,410)"/>
<path d="M0 0 C0.99 0.33 1.98 0.66 3 1 C0.36 3.64 -2.28 6.28 -5 9 C-5.99 8.67 -6.98 8.34 -8 8 C-5.36 5.36 -2.72 2.72 0 0 Z " fill="#425A74" transform="translate(136,118)"/>
<path d="M0 0 C3.11198065 1.49836105 6.0534615 3.19933758 9 5 C8.67 5.99 8.34 6.98 8 8 C5.03 6.02 2.06 4.04 -1 2 C-0.67 1.34 -0.34 0.68 0 0 Z " fill="#50667E" transform="translate(161,438)"/>
<path d="M0 0 C-0.33 0.66 -0.66 1.32 -1 2 C-2.2375 2.04125 -3.475 2.0825 -4.75 2.125 C-5.79414063 2.15980469 -5.79414063 2.15980469 -6.859375 2.1953125 C-9.30155975 1.97248542 -10.88636771 1.20915 -13 0 C-11.58456585 -0.19658808 -10.16755969 -0.38187546 -8.75 -0.5625 C-7.96109375 -0.66691406 -7.1721875 -0.77132813 -6.359375 -0.87890625 C-3.99467126 -1.00027349 -2.2488963 -0.69633257 0 0 Z " fill="#5B7086" transform="translate(315,474)"/>
<path d="M0 0 C4.41889613 1.35021826 6.34345343 3.26115668 9 7 C4.71193127 6.52354792 2.73352513 5.34097516 0 2 C0 1.34 0 0.68 0 0 Z " fill="#4D637B" transform="translate(138,420)"/>
<path d="M0 0 C0 0.66 0 1.32 0 2 C-3.3 2.33 -6.6 2.66 -10 3 C-10 2.01 -10 1.02 -10 0 C-6.33694766 -0.74926071 -3.57644848 -1.2380014 0 0 Z " fill="#697B90" transform="translate(253,63)"/>
<path d="M0 0 C3.3 0.99 6.6 1.98 10 3 C10 3.66 10 4.32 10 5 C8.51793505 4.745504 7.03931385 4.47088238 5.5625 4.1875 C4.73878906 4.03667969 3.91507813 3.88585937 3.06640625 3.73046875 C2.38449219 3.48941406 1.70257813 3.24835938 1 3 C0.67 2.01 0.34 1.02 0 0 Z " fill="#455C76" transform="translate(203,461)"/>
<path d="M0 0 C1.71872538 2.57808807 2.48218488 4.10424011 3.25 7 C3.44078125 7.680625 3.6315625 8.36125 3.828125 9.0625 C4 11 4 11 2 14 C0.66416101 9.15758367 -0.25328119 5.06562383 0 0 Z " fill="#526880" transform="translate(477,198)"/>
<path d="M0 0 C-2 2 -2 2 -4.1640625 2.1953125 C-5.38222656 2.16050781 -5.38222656 2.16050781 -6.625 2.125 C-7.44226563 2.10695313 -8.25953125 2.08890625 -9.1015625 2.0703125 C-9.72804687 2.04710938 -10.35453125 2.02390625 -11 2 C-7.72338241 -1.27661759 -4.29690696 -1.43230232 0 0 Z " fill="#4A617A" transform="translate(262,62)"/>
<path d="M0 0 C3.3 0 6.6 0 10 0 C8.515 1.485 8.515 1.485 7 3 C3.3125 2.6875 3.3125 2.6875 0 2 C0 1.34 0 0.68 0 0 Z " fill="#5F7389" transform="translate(243,473)"/>
<path d="M0 0 C0.33 0.66 0.66 1.32 1 2 C-1.97 2.66 -4.94 3.32 -8 4 C-8.33 3.01 -8.66 2.02 -9 1 C-5.92677456 0.08941469 -3.19902639 -0.08886184 0 0 Z " fill="#5E7288" transform="translate(230,67)"/>
<path d="M0 0 C0.99 0.33 1.98 0.66 3 1 C2.1875 4.4375 2.1875 4.4375 1 8 C0.01 8.33 -0.98 8.66 -2 9 C-1.34 6.03 -0.68 3.06 0 0 Z " fill="#5E7289" transform="translate(479,326)"/>
<path d="M0 0 C0.99 0.33 1.98 0.66 3 1 C1.35 2.98 -0.3 4.96 -2 7 C-2.66 6.34 -3.32 5.68 -4 5 C-2.68 3.35 -1.36 1.7 0 0 Z " fill="#4E647D" transform="translate(127,127)"/>
<path d="M0 0 C2.9719385 1.12451727 5.33440687 2.22293791 8 4 C5.39417629 4.93065133 4.35801776 5.14917407 1.75 4.0625 C1.1725 3.711875 0.595 3.36125 0 3 C0 2.01 0 1.02 0 0 Z " fill="#596D84" transform="translate(186,453)"/>
<path d="M0 0 C0.99 0.33 1.98 0.66 3 1 C3.33 2.98 3.66 4.96 4 7 C3.01 7 2.02 7 1 7 C0.67 4.69 0.34 2.38 0 0 Z " fill="#596E85" transform="translate(80,325)"/>
<path d="M0 0 C0.66 0 1.32 0 2 0 C4.09350689 3.4019487 4.17942163 6.05272412 4 10 C1.81024227 6.71536341 1.00193437 3.79303725 0 0 Z " fill="#455C76" transform="translate(473,191)"/>
<path d="M0 0 C0.66 0.33 1.32 0.66 2 1 C0.02 3.97 0.02 3.97 -2 7 C-2.99 6.67 -3.98 6.34 -5 6 C-3.35 4.02 -1.7 2.04 0 0 Z " fill="#455C76" transform="translate(451,387)"/>
</svg>
